<svg width="16" height="17" viewBox="0 0 16 17" fill="none" xmlns="http://www.w3.org/2000/svg">
    <path d="M13.5139 0.799805H2.48764C1.55781 0.799805 0.800781 1.5358 0.800781 2.4478V13.2638C0.800781 14.1758 1.55781 14.9118 2.48764 14.9118H11.8188L11.3827 13.4318L12.436 14.3838L13.4316 15.2798L15.2008 16.7998V2.4478C15.2008 1.5358 14.4438 0.799805 13.5139 0.799805ZM10.3377 11.2478C10.3377 11.2478 10.0415 10.9038 9.79461 10.5998C10.8726 10.3038 11.284 9.6478 11.284 9.6478C10.9466 9.8638 10.6257 10.0158 10.3377 10.1198C9.92627 10.2878 9.5313 10.3998 9.14455 10.4638C8.35461 10.6078 7.6305 10.5678 7.01335 10.4558C6.54432 10.3678 6.14112 10.2398 5.80375 10.1118C5.6145 10.0398 5.40878 9.9518 5.20307 9.8398C5.17838 9.8238 5.1537 9.8158 5.12901 9.7998C5.11255 9.7918 5.10432 9.7838 5.0961 9.7758C4.94798 9.6958 4.8657 9.6398 4.8657 9.6398C4.8657 9.6398 5.26067 10.2798 6.3057 10.5838C6.05884 10.8878 5.75438 11.2478 5.75438 11.2478C3.93587 11.1918 3.24467 10.0318 3.24467 10.0318C3.24467 7.4558 4.42958 5.3678 4.42958 5.3678C5.6145 4.5038 6.74181 4.5278 6.74181 4.5278L6.8241 4.6238C5.34295 5.0398 4.65998 5.6718 4.65998 5.6718C4.65998 5.6718 4.84101 5.5758 5.14547 5.4398C6.02592 5.0638 6.72535 4.9598 7.01335 4.9358C7.06272 4.9278 7.10387 4.9198 7.15324 4.9198C7.65518 4.8558 8.22295 4.8398 8.81541 4.9038C9.59712 4.9918 10.4364 5.2158 11.2922 5.6718C11.2922 5.6718 10.6422 5.0718 9.24329 4.6558L9.3585 4.5278C9.3585 4.5278 10.4858 4.5038 11.6707 5.3678C11.6707 5.3678 12.8556 7.4558 12.8556 10.0318C12.8556 10.0318 12.1562 11.1918 10.3377 11.2478ZM6.51141 7.5118C6.04238 7.5118 5.6721 7.9118 5.6721 8.3998C5.6721 8.8878 6.05061 9.2878 6.51141 9.2878C6.98044 9.2878 7.35072 8.8878 7.35072 8.3998C7.35895 7.9118 6.98044 7.5118 6.51141 7.5118ZM9.51484 7.5118C9.04581 7.5118 8.67552 7.9118 8.67552 8.3998C8.67552 8.8878 9.05404 9.2878 9.51484 9.2878C9.98387 9.2878 10.3542 8.8878 10.3542 8.3998C10.3542 7.9118 9.98387 7.5118 9.51484 7.5118Z" fill="black"/>
</svg>