<?xml version="1.0" encoding="UTF-8"?>
<svg xmlns="http://www.w3.org/2000/svg" xmlns:xlink="http://www.w3.org/1999/xlink" width="32px" height="32px" viewBox="0 0 32 32" version="1.1">
<g id="surface1">
<path style=" stroke:none;fill-rule:nonzero;fill:rgb(3.921569%,3.921569%,3.137255%);fill-opacity:1;" d="M 16 2.882812 C 20.273438 2.882812 20.777344 2.898438 22.464844 2.976562 C 24.023438 3.046875 24.871094 3.308594 25.4375 3.527344 C 26.183594 3.816406 26.714844 4.164062 27.277344 4.722656 C 27.835938 5.285156 28.183594 5.816406 28.472656 6.5625 C 28.691406 7.128906 28.953125 7.976562 29.023438 9.535156 C 29.101562 11.222656 29.117188 11.726562 29.117188 16 C 29.117188 20.273438 29.101562 20.777344 29.023438 22.464844 C 28.953125 24.023438 28.691406 24.871094 28.472656 25.4375 C 28.183594 26.183594 27.835938 26.714844 27.277344 27.277344 C 26.714844 27.835938 26.183594 28.183594 25.4375 28.472656 C 24.871094 28.691406 24.023438 28.953125 22.464844 29.023438 C 20.777344 29.101562 20.273438 29.117188 16 29.117188 C 11.726562 29.117188 11.222656 29.101562 9.535156 29.023438 C 7.976562 28.953125 7.128906 28.691406 6.5625 28.472656 C 5.816406 28.183594 5.285156 27.835938 4.722656 27.277344 C 4.164062 26.714844 3.816406 26.183594 3.527344 25.4375 C 3.308594 24.871094 3.046875 24.023438 2.976562 22.464844 C 2.898438 20.777344 2.882812 20.273438 2.882812 16 C 2.882812 11.726562 2.898438 11.222656 2.976562 9.535156 C 3.046875 7.976562 3.308594 7.128906 3.527344 6.5625 C 3.816406 5.816406 4.164062 5.285156 4.722656 4.722656 C 5.285156 4.164062 5.816406 3.816406 6.5625 3.527344 C 7.128906 3.308594 7.976562 3.046875 9.535156 2.976562 C 11.222656 2.898438 11.726562 2.882812 16 2.882812 M 16 0 C 11.65625 0 11.109375 0.0195312 9.402344 0.0976562 C 7.699219 0.175781 6.539062 0.445312 5.519531 0.839844 C 4.46875 1.25 3.574219 1.796875 2.683594 2.683594 C 1.796875 3.574219 1.25 4.46875 0.839844 5.519531 C 0.445312 6.539062 0.175781 7.699219 0.0976562 9.402344 C 0.0195312 11.109375 0 11.65625 0 16 C 0 20.34375 0.0195312 20.890625 0.0976562 22.597656 C 0.175781 24.300781 0.445312 25.460938 0.839844 26.480469 C 1.25 27.53125 1.796875 28.425781 2.683594 29.316406 C 3.574219 30.203125 4.46875 30.75 5.519531 31.160156 C 6.539062 31.554688 7.699219 31.824219 9.402344 31.902344 C 11.109375 31.980469 11.65625 32 16 32 C 20.34375 32 20.890625 31.980469 22.597656 31.902344 C 24.300781 31.824219 25.460938 31.554688 26.480469 31.160156 C 27.53125 30.75 28.425781 30.203125 29.316406 29.316406 C 30.203125 28.425781 30.75 27.53125 31.160156 26.480469 C 31.554688 25.460938 31.824219 24.300781 31.902344 22.597656 C 31.980469 20.890625 32 20.34375 32 16 C 32 11.65625 31.980469 11.109375 31.902344 9.402344 C 31.824219 7.699219 31.554688 6.539062 31.160156 5.519531 C 30.75 4.46875 30.203125 3.574219 29.316406 2.683594 C 28.425781 1.796875 27.53125 1.25 26.480469 0.839844 C 25.460938 0.445312 24.300781 0.175781 22.597656 0.0976562 C 20.890625 0.0195312 20.34375 0 16 0 Z M 16 7.785156 C 11.460938 7.785156 7.785156 11.460938 7.785156 16 C 7.785156 20.539062 11.460938 24.214844 16 24.214844 C 20.539062 24.214844 24.214844 20.539062 24.214844 16 C 24.214844 11.460938 20.539062 7.785156 16 7.785156 Z M 16 21.332031 C 13.054688 21.332031 10.667969 18.945312 10.667969 16 C 10.667969 13.054688 13.054688 10.667969 16 10.667969 C 18.945312 10.667969 21.332031 13.054688 21.332031 16 C 21.332031 18.945312 18.945312 21.332031 16 21.332031 Z M 26.460938 7.460938 C 26.460938 8.519531 25.601562 9.378906 24.539062 9.378906 C 23.480469 9.378906 22.621094 8.519531 22.621094 7.460938 C 22.621094 6.398438 23.480469 5.539062 24.539062 5.539062 C 25.601562 5.539062 26.460938 6.398438 26.460938 7.460938 Z M 26.460938 7.460938 "/>
</g>
</svg>
