<svg width="17" height="13" viewBox="0 0 17 13" fill="none" xmlns="http://www.w3.org/2000/svg">
    <path d="M16.4798 1.9199C15.9198 2.1599 15.2798 2.3199 14.6398 2.3999C15.2798 1.9999 15.8398 1.3599 16.0798 0.639905C15.4398 1.0399 14.7998 1.2799 13.9998 1.4399C13.4398 0.799905 12.5598 0.399902 11.6798 0.399902C9.9198 0.399902 8.4798 1.8399 8.4798 3.5999C8.4798 3.8399 8.4798 4.0799 8.5598 4.3199C5.9198 4.1599 3.5198 2.8799 1.9198 0.9599C1.6798 1.4399 1.5198 1.9999 1.5198 2.5599C1.5198 3.6799 2.0798 4.6399 2.9598 5.1999C2.3998 5.1999 1.9198 5.0399 1.5198 4.7999C1.5198 6.3199 2.6398 7.6799 4.0798 7.9199C3.8398 7.9999 3.5198 7.9999 3.1998 7.9999C2.9598 7.9999 2.7998 7.9999 2.5598 7.9199C2.9598 9.1999 4.1598 10.1599 5.5998 10.1599C4.4798 11.0399 3.1198 11.5199 1.5998 11.5199C1.3598 11.5199 1.1198 11.5199 0.799805 11.4399C2.2398 12.3199 3.9198 12.8799 5.7598 12.8799C11.6798 12.8799 14.8798 7.9999 14.8798 3.7599V3.3599C15.5198 3.1199 16.0798 2.5599 16.4798 1.9199Z" fill="black"/>
</svg>
