<svg width="32" height="33" viewBox="0 0 32 33" fill="none" xmlns="http://www.w3.org/2000/svg">
    <path d="M0 8.5C0 4.08172 3.58172 0.5 8 0.5H24C28.4183 0.5 32 4.08172 32 8.5V24.5C32 28.9183 28.4183 32.5 24 32.5H8C3.58172 32.5 0 28.9183 0 24.5V8.5Z" fill="#7289DA" fill-opacity="0.2"/>
    <path d="M23.2368 10.9881C23.2076 10.9423 23.1743 10.9063 23.1307 10.8735C22.7853 10.6139 21.0323 9.37349 18.7887 9.1327C18.7842 9.13225 18.7672 9.13135 18.7631 9.13135C18.7191 9.13135 18.6809 9.15695 18.6625 9.19424L18.5416 9.43594H18.5412C18.5336 9.45076 18.5295 9.46784 18.5295 9.48581C18.5295 9.53477 18.561 9.57655 18.605 9.59183C18.6077 9.59273 18.6266 9.59677 18.6333 9.59812C20.5502 10.0599 21.7165 10.8964 22.7435 11.8197C20.9254 10.8915 19.1297 10.0222 16.0007 10.0222C12.8717 10.0222 11.0765 10.892 9.25791 11.8197C10.2849 10.8964 11.4511 10.0599 13.3681 9.59812C13.3748 9.59632 13.3937 9.59273 13.3964 9.59183C13.4404 9.57655 13.4719 9.53477 13.4719 9.48581C13.4719 9.46784 13.4678 9.45076 13.4602 9.43594H13.4597L13.3389 9.19424C13.3205 9.15695 13.2827 9.13135 13.2383 9.13135C13.2342 9.13135 13.2167 9.13225 13.2127 9.1327C10.9691 9.37349 9.21613 10.6139 8.87066 10.8735C8.82708 10.9063 8.79429 10.9423 8.76464 10.9881C8.44657 11.4854 6.49638 14.7564 6.11766 20.7063C6.11362 20.77 6.13563 20.8361 6.17831 20.8837C8.24126 23.1946 11.2018 23.4678 11.8335 23.4997C11.9085 23.5033 11.9804 23.4705 12.0253 23.4103L12.6012 22.6425C12.6462 22.5823 12.6219 22.4979 12.5514 22.4723C11.3361 22.0293 9.983 21.2593 8.80821 19.9088C10.2642 21.0095 12.4606 22.1519 16.0007 22.1519C19.5408 22.1519 21.7372 21.0095 23.1927 19.9088C22.0175 21.2593 20.6648 22.0288 19.4496 22.4723C19.379 22.4979 19.3548 22.5823 19.3997 22.6425L19.9757 23.4103C20.021 23.4705 20.0925 23.5037 20.1675 23.4997C20.7996 23.4673 23.7597 23.1946 25.8226 20.8837C25.8653 20.8361 25.8873 20.77 25.8833 20.7063C25.505 14.7564 23.5548 11.4854 23.2368 10.9881Z" fill="#7289DA"/>
    <path opacity="0.05" d="M18.921 19.4564C20.0375 19.4564 20.9427 18.4507 20.9427 17.2101C20.9427 15.9695 20.0375 14.9639 18.921 14.9639C17.8045 14.9639 16.8994 15.9695 16.8994 17.2101C16.8994 18.4507 17.8045 19.4564 18.921 19.4564Z" fill="#7289DA"/>
    <path opacity="0.05" d="M18.921 19.2317C19.9135 19.2317 20.718 18.3266 20.718 17.2101C20.718 16.0936 19.9135 15.1885 18.921 15.1885C17.9286 15.1885 17.124 16.0936 17.124 17.2101C17.124 18.3266 17.9286 19.2317 18.921 19.2317Z" fill="#7289DA"/>
    <path d="M18.921 19.0071C19.7894 19.0071 20.4934 18.2025 20.4934 17.2101C20.4934 16.2176 19.7894 15.4131 18.921 15.4131C18.0526 15.4131 17.3486 16.2176 17.3486 17.2101C17.3486 18.2025 18.0526 19.0071 18.921 19.0071Z" fill="white"/>
    <path opacity="0.05" d="M13.0807 19.4564C14.1972 19.4564 15.1023 18.4507 15.1023 17.2101C15.1023 15.9695 14.1972 14.9639 13.0807 14.9639C11.9642 14.9639 11.0591 15.9695 11.0591 17.2101C11.0591 18.4507 11.9642 19.4564 13.0807 19.4564Z" fill="#7289DA"/>
    <path opacity="0.05" d="M13.0807 19.2317C14.0731 19.2317 14.8777 18.3266 14.8777 17.2101C14.8777 16.0936 14.0731 15.1885 13.0807 15.1885C12.0882 15.1885 11.2837 16.0936 11.2837 17.2101C11.2837 18.3266 12.0882 19.2317 13.0807 19.2317Z" fill="#7289DA"/>
    <path d="M13.0807 19.0071C13.9491 19.0071 14.653 18.2025 14.653 17.2101C14.653 16.2176 13.9491 15.4131 13.0807 15.4131C12.2123 15.4131 11.5083 16.2176 11.5083 17.2101C11.5083 18.2025 12.2123 19.0071 13.0807 19.0071Z" fill="white"/>
</svg>